<svg xmlns="http://www.w3.org/2000/svg" xmlns:xlink="http://www.w3.org/1999/xlink" viewBox="0 0 644.46 342.49"><defs><style>.cls-1{fill:url(#Unbenannter_Verlauf_37);}.cls-2{fill:url(#Unbenannter_Verlauf_37-2);}.cls-3{fill:url(#Unbenannter_Verlauf_37-3);}.cls-4{fill:url(#Unbenannter_Verlauf_37-4);}.cls-5{fill:url(#Unbenannter_Verlauf_37-5);}</style><linearGradient id="Unbenannter_Verlauf_37" x1="249.65" y1="5.63" x2="441.51" y2="337.94" gradientUnits="userSpaceOnUse"><stop offset="0" stop-color="#ed1e79"/><stop offset="1" stop-color="#f06"/></linearGradient><linearGradient id="Unbenannter_Verlauf_37-2" x1="0" y1="171.24" x2="113.46" y2="171.24" xlink:href="#Unbenannter_Verlauf_37"/><linearGradient id="Unbenannter_Verlauf_37-3" x1="128.59" y1="171.29" x2="174.21" y2="171.29" xlink:href="#Unbenannter_Verlauf_37"/><linearGradient id="Unbenannter_Verlauf_37-4" x1="475.41" y1="171.29" x2="527.19" y2="171.29" xlink:href="#Unbenannter_Verlauf_37"/><linearGradient id="Unbenannter_Verlauf_37-5" x1="535.46" y1="171.29" x2="644.46" y2="171.29" xlink:href="#Unbenannter_Verlauf_37"/></defs><title>Text</title><g id="Ebene_2" data-name="Ebene 2"><g id="Ebene_1-2" data-name="Ebene 1"><path class="cls-1" d="M503.46,238.89H488.57l-28.78-50.33-13.38,14.67v35.66H413.82V103.7h32.59v59.61l11.33-17.18,17.67-25.71c-7.25-51,1.38-104.47-20-117.26C433.48-9.67,380.27,20.28,332.67,27.23c-47.59,7.22-89-8.82-121.92,2.41-28.42,9.47-50.44,39.1-61.77,74.06h12.2V213.82h56.74v25.07H174.21c26.65,20,68.62,24.46,109,43.42,43.58,20.86,85,58.83,127,60.16,41.71,1.07,83.95-34.49,92.24-76.2A97.92,97.92,0,0,0,503.46,238.89Zm-237.08,0h-32.5V103.7h32.5Zm57.43-33q5.43,9.28,18.71,9.28,11.24,0,17.17-5.29T366,193.11h32.4A49.35,49.35,0,0,1,390.8,218a45.93,45.93,0,0,1-19.55,16.76q-12.57,5.94-28.73,5.94-26.65,0-42-17.36t-15.32-49v-6.69q0-19.86,6.92-34.77a52.43,52.43,0,0,1,19.91-23q13-8.12,30.09-8.12,24.6,0,39.55,13t17,35.7h-32.5q-.36-12.35-6.22-17.73t-17.82-5.39q-12.16,0-17.83,9.1t-5.94,29.06V175Q318.38,196.64,323.81,205.93ZM484.1,160.1l-2.59,3.39,6.75,11.15C486.85,169.83,485.45,165,484.1,160.1Z"/><path class="cls-2" d="M74.46,209.92q-5.94,5.29-17.17,5.29-13.29,0-18.71-9.28T33.15,175v-9.57q.27-20,5.94-29.06t17.83-9.1q12,0,17.82,5.39T81,150.4h32.5q-2-22.74-17-35.7t-39.55-13q-17.1,0-30.09,8.12a52.43,52.43,0,0,0-19.91,23Q0,147.8,0,167.67v6.69q0,31.66,15.32,49t42,17.36q16.16,0,28.73-5.94A45.93,45.93,0,0,0,105.57,218a49.35,49.35,0,0,0,7.61-24.93H80.78Q80.41,204.63,74.46,209.92Z"/><path class="cls-3" d="M167.7,233.38c-26.2-24.87-32.35-70.86-23.26-112.83,1.24-5.71,2.76-11.35,4.54-16.85H128.59V238.89h45.62A70.17,70.17,0,0,1,167.7,233.38Z"/><path class="cls-4" d="M486.9,103.7l-11.49,16.72c.18,1.29.38,2.58.58,3.87a329.45,329.45,0,0,0,8.11,35.81l43.09-56.4Zm16.56,135.19h23.73l-38.93-64.25C494.86,197.08,501.58,218.58,503.46,238.89Z"/><path class="cls-5" d="M616.23,182.91q12.16-5.76,17.88-15t5.71-23.37q0-19.48-13.56-30.15t-37.6-10.66h-53.2V238.89h32.59V191.07h17.64l23.86,47.82h34.91v-1.4Zm-13.6-21.8Q598,166,588.66,166H568.05V128.77h20.61q9.2,0,13.93,5t4.73,13.73Q607.32,156.23,602.63,161.11Z"/></g></g></svg>